<svg width="18" height="18" viewBox="0 0 18 18" fill="none" xmlns="http://www.w3.org/2000/svg">
<path d="M8.98056 16.4262C13.0731 16.4262 16.3908 13.1085 16.3908 9.01596C16.3908 4.92339 13.0731 1.60571 8.98056 1.60571C4.88799 1.60571 1.57031 4.92339 1.57031 9.01596C1.57031 13.1085 4.88799 16.4262 8.98056 16.4262Z" fill="#5E60CE"/>
<path d="M8.96452 1.85959C10.3768 1.85959 11.7573 2.27837 12.9316 3.06298C14.1058 3.84758 15.021 4.96278 15.5615 6.26753C16.1019 7.57229 16.2433 9.008 15.9678 10.3931C15.6923 11.7782 15.0122 13.0506 14.0136 14.0492C13.015 15.0478 11.7427 15.7279 10.3576 16.0034C8.97244 16.2789 7.53673 16.1375 6.23197 15.597C4.92722 15.0566 3.81202 14.1414 3.02742 12.9671C2.24281 11.7929 1.82403 10.4123 1.82403 9.00008C1.83134 7.10855 2.58599 5.29659 3.92351 3.95907C5.26103 2.62155 7.073 1.8669 8.96452 1.85959ZM8.96452 0.272809C7.23997 0.279864 5.55616 0.7977 4.12568 1.76094C2.69519 2.72419 1.58215 4.08965 0.927075 5.68496C0.272 7.28027 0.104256 9.0339 0.445021 10.7245C0.785786 12.415 1.61978 13.9667 2.84172 15.1837C4.06366 16.4007 5.61876 17.2283 7.31071 17.5622C9.00265 17.896 10.7556 17.7211 12.3482 17.0596C13.9408 16.398 15.3017 15.2794 16.2591 13.845C17.2165 12.4106 17.7275 10.7246 17.7275 9.00008C17.7275 7.85099 17.5006 6.71321 17.0598 5.65203C16.619 4.59086 15.9729 3.62718 15.1587 2.81631C14.3445 2.00544 13.3782 1.36334 12.3153 0.926857C11.2523 0.490376 10.1136 0.268108 8.96452 0.272809Z" fill="#5E60CE"/>
<path d="M12.4311 6.34215L8.09914 10.6741L5.61667 8.19162L4.78076 9.02753L8.09914 12.3459L13.267 7.17806L12.4311 6.34215Z" fill="#F2F2F2"/>
</svg>
